<svg width="20" height="17" viewBox="0 0 20 17" fill="none" xmlns="http://www.w3.org/2000/svg">
<path d="M13.0854 0.151489L16.0288 5.24999H19.1666V7.08332H18.0968L17.4029 15.4094C17.3838 15.6385 17.2794 15.852 17.1103 16.0077C16.9412 16.1634 16.7198 16.2499 16.4899 16.25H3.50992C3.28006 16.2499 3.05864 16.1634 2.88954 16.0077C2.72044 15.852 2.616 15.6385 2.59692 15.4094L1.90209 7.08332H0.833252V5.24999H3.97009L6.91442 0.151489L8.50209 1.06816L6.08759 5.24999H13.9113L11.4978 1.06816L13.0854 0.151489ZM16.2571 7.08332H3.74184L4.35325 14.4167H15.6457L16.2571 7.08332ZM10.9166 8.91666V12.5833H9.08325V8.91666H10.9166ZM7.24992 8.91666V12.5833H5.41659V8.91666H7.24992ZM14.5833 8.91666V12.5833H12.7499V8.91666H14.5833Z" fill="#2FDBBC"/>
</svg>
