<svg width="20" height="18" viewBox="0 0 20 18" fill="none" xmlns="http://www.w3.org/2000/svg">
<path d="M10.0008 2.1516C12.1541 0.218345 15.4816 0.282512 17.556 2.3606C19.6295 4.4396 19.701 7.7506 17.7723 9.91026L9.99901 17.6946L2.22751 9.91026C0.298841 7.7506 0.371258 4.4341 2.44384 2.3606C4.52009 0.285262 7.84118 0.215595 10.0008 2.1516ZM16.258 3.65585C14.883 2.27901 12.6647 2.2231 11.2255 3.5156L10.0018 4.61376L8.77709 3.51651C7.33334 2.22218 5.11959 2.27901 3.74092 3.65768C2.37509 5.02351 2.30634 7.20976 3.56492 8.65443L9.99992 15.0995L16.4349 8.65535C17.6944 7.20976 17.6257 5.02626 16.258 3.65585Z" fill="#2D2D2D"/>
</svg>
