<svg width="20" height="18" viewBox="0 0 20 18" fill="none" xmlns="http://www.w3.org/2000/svg">
<path d="M10.0008 2.15156C12.1541 0.218315 15.4816 0.282482 17.556 2.36057C19.6295 4.43957 19.701 7.75057 17.7723 9.91023L9.99901 17.6946L2.22751 9.91023C0.298841 7.75057 0.371258 4.43407 2.44384 2.36057C4.52009 0.285232 7.84118 0.215565 10.0008 2.15156ZM16.258 3.65582C14.883 2.27898 12.6647 2.22307 11.2255 3.51557L10.0018 4.61373L8.77709 3.51648C7.33334 2.22215 5.11959 2.27898 3.74092 3.65765C2.37509 5.02348 2.30634 7.20973 3.56492 8.6544L9.99992 15.0995L16.4349 8.65532C17.6944 7.20973 17.6257 5.02623 16.258 3.65582Z" fill="#2FDBBC"/>
</svg>
