<svg width="20" height="20" viewBox="0 0 20 20" fill="none" xmlns="http://www.w3.org/2000/svg">
<path d="M9.08325 0.833344C13.6373 0.833344 17.3333 4.52934 17.3333 9.08334C17.3333 13.6373 13.6373 17.3333 9.08325 17.3333C4.52925 17.3333 0.833252 13.6373 0.833252 9.08334C0.833252 4.52934 4.52925 0.833344 9.08325 0.833344ZM9.08325 15.5C12.628 15.5 15.4999 12.6281 15.4999 9.08334C15.4999 5.53768 12.628 2.66668 9.08325 2.66668C5.53758 2.66668 2.66659 5.53768 2.66659 9.08334C2.66659 12.6281 5.53758 15.5 9.08325 15.5ZM16.8612 15.5651L19.4544 18.1574L18.1573 19.4545L15.565 16.8613L16.8612 15.5651Z" fill="#2D2D2D"/>
</svg>
