<svg width="16" height="21" viewBox="0 0 16 21" fill="none" xmlns="http://www.w3.org/2000/svg">
<path d="M15.3334 20.1667H13.5001V18.3333C13.5001 17.604 13.2103 16.9045 12.6946 16.3888C12.1789 15.8731 11.4794 15.5833 10.7501 15.5833H5.25008C4.52074 15.5833 3.82126 15.8731 3.30554 16.3888C2.78981 16.9045 2.50008 17.604 2.50008 18.3333V20.1667H0.666748V18.3333C0.666748 17.1177 1.14963 15.952 2.00918 15.0924C2.86872 14.2329 4.03451 13.75 5.25008 13.75H10.7501C11.9657 13.75 13.1314 14.2329 13.991 15.0924C14.8505 15.952 15.3334 17.1177 15.3334 18.3333V20.1667ZM8.00008 11.9167C7.27781 11.9167 6.56261 11.7744 5.89532 11.498C5.22803 11.2216 4.62172 10.8165 4.11099 10.3057C3.60027 9.79502 3.19514 9.18871 2.91874 8.52142C2.64234 7.85413 2.50008 7.13893 2.50008 6.41666C2.50008 5.69439 2.64234 4.97919 2.91874 4.3119C3.19514 3.64461 3.60027 3.03829 4.11099 2.52757C4.62172 2.01685 5.22803 1.61172 5.89532 1.33532C6.56261 1.05892 7.27781 0.916656 8.00008 0.916656C9.45877 0.916657 10.8577 1.49612 11.8892 2.52757C12.9206 3.55902 13.5001 4.95797 13.5001 6.41666C13.5001 7.87535 12.9206 9.27429 11.8892 10.3057C10.8577 11.3372 9.45877 11.9167 8.00008 11.9167ZM8.00008 10.0833C8.97254 10.0833 9.90517 9.69702 10.5928 9.00938C11.2804 8.32175 11.6667 7.38912 11.6667 6.41666C11.6667 5.4442 11.2804 4.51157 10.5928 3.82393C9.90517 3.1363 8.97254 2.74999 8.00008 2.74999C7.02762 2.74999 6.09499 3.1363 5.40736 3.82393C4.71972 4.51157 4.33341 5.4442 4.33341 6.41666C4.33341 7.38912 4.71972 8.32175 5.40736 9.00938C6.09499 9.69702 7.02762 10.0833 8.00008 10.0833Z" fill="#2D2D2D"/>
</svg>
