<svg width="16" height="21" viewBox="0 0 16 21" fill="none" xmlns="http://www.w3.org/2000/svg">
<path d="M15.3334 20.1667H13.5001V18.3334C13.5001 17.604 13.2103 16.9045 12.6946 16.3888C12.1789 15.8731 11.4794 15.5834 10.7501 15.5834H5.25008C4.52074 15.5834 3.82126 15.8731 3.30554 16.3888C2.78981 16.9045 2.50008 17.604 2.50008 18.3334V20.1667H0.666748V18.3334C0.666748 17.1178 1.14963 15.952 2.00918 15.0924C2.86872 14.2329 4.03451 13.75 5.25008 13.75H10.7501C11.9657 13.75 13.1314 14.2329 13.991 15.0924C14.8505 15.952 15.3334 17.1178 15.3334 18.3334V20.1667ZM8.00008 11.9167C7.27781 11.9167 6.56261 11.7744 5.89532 11.498C5.22803 11.2216 4.62172 10.8165 4.11099 10.3058C3.60027 9.79505 3.19514 9.18874 2.91874 8.52145C2.64234 7.85416 2.50008 7.13896 2.50008 6.41669C2.50008 5.69442 2.64234 4.97922 2.91874 4.31193C3.19514 3.64464 3.60027 3.03832 4.11099 2.5276C4.62172 2.01688 5.22803 1.61175 5.89532 1.33535C6.56261 1.05895 7.27781 0.916687 8.00008 0.916687C9.45877 0.916687 10.8577 1.49615 11.8892 2.5276C12.9206 3.55905 13.5001 4.958 13.5001 6.41669C13.5001 7.87538 12.9206 9.27432 11.8892 10.3058C10.8577 11.3372 9.45877 11.9167 8.00008 11.9167ZM8.00008 10.0834C8.97254 10.0834 9.90517 9.69705 10.5928 9.00941C11.2804 8.32178 11.6667 7.38915 11.6667 6.41669C11.6667 5.44423 11.2804 4.5116 10.5928 3.82396C9.90517 3.13633 8.97254 2.75002 8.00008 2.75002C7.02762 2.75002 6.09499 3.13633 5.40736 3.82396C4.71972 4.5116 4.33341 5.44423 4.33341 6.41669C4.33341 7.38915 4.71972 8.32178 5.40736 9.00941C6.09499 9.69705 7.02762 10.0834 8.00008 10.0834Z" fill="#2FDBBC"/>
</svg>
